<?xml version="1.0" encoding="iso-8859-1"?>
<!-- Uploaded to: SVG Repo, www.svgrepo.com, Generator: SVG Repo Mixer Tools -->
<svg height="800px" width="800px" version="1.1" id="Layer_1" xmlns="http://www.w3.org/2000/svg" xmlns:xlink="http://www.w3.org/1999/xlink" 
	 viewBox="0 0 511.999 511.999" xml:space="preserve">
<path style="fill:#F9DE8F;" d="M265.171,27.112l68.136,138.06c1.49,3.019,4.37,5.111,7.701,5.595l152.358,22.139
	c8.389,1.219,11.739,11.528,5.669,17.446L388.788,317.817c-2.411,2.349-3.51,5.735-2.941,9.053l26.025,151.743
	c1.433,8.355-7.337,14.727-14.84,10.782l-136.273-71.644c-2.979-1.567-6.539-1.567-9.518,0l-136.273,71.642
	c-7.503,3.945-16.273-2.427-14.84-10.782l26.025-151.743c0.569-3.318-0.531-6.704-2.941-9.053L12.964,210.351
	c-6.07-5.917-2.72-16.227,5.669-17.446l152.358-22.139c3.331-0.484,6.211-2.577,7.701-5.595L246.83,27.11
	C250.58,19.509,261.419,19.509,265.171,27.112z"/>
<path style="fill:#F7CF6D;" d="M499.036,210.351c6.07-5.917,2.72-16.227-5.669-17.446L421.766,182.5l-54.964,53.577
	c-16.629,16.21-24.218,39.564-20.292,62.453l0,0c9.886,57.638-50.613,101.593-102.376,74.379l0,0
	c-20.555-10.807-45.112-10.807-65.667,0l-66.178,34.792l-12.162,70.909c-1.433,8.355,7.337,14.727,14.84,10.782l136.273-71.644
	c2.979-1.567,6.539-1.567,9.518,0l136.273,71.644c7.503,3.945,16.273-2.427,14.84-10.782l-26.025-151.743
	c-0.569-3.318,0.531-6.704,2.941-9.053L499.036,210.351z"/>
<path d="M110.189,500.449c-12.292,0-21.846-11.467-19.779-23.505l26.025-151.742c0.021-0.12-0.018-0.241-0.105-0.326L6.082,217.412
	c-5.516-5.376-7.463-13.266-5.084-20.593c2.381-7.325,8.594-12.564,16.217-13.671l152.358-22.138
	c0.12-0.018,0.223-0.093,0.277-0.202l68.136-138.06c3.409-6.907,10.312-11.198,18.014-11.198s14.605,4.291,18.014,11.198
	l68.136,138.06c0.054,0.109,0.158,0.184,0.276,0.201l152.358,22.138c7.623,1.107,13.836,6.346,16.217,13.671
	c2.38,7.325,0.433,15.216-5.084,20.593L395.67,324.875c-0.087,0.084-0.126,0.205-0.105,0.325l26.025,151.744
	c1.303,7.59-1.759,15.119-7.991,19.647c-6.232,4.529-14.338,5.115-21.156,1.529l-136.273-71.642
	c-0.108-0.058-0.234-0.058-0.34-0.001l-136.275,71.645C116.59,499.679,113.381,500.449,110.189,500.449z M187.534,169.535
	c-2.928,5.931-8.582,10.038-15.125,10.988L20.05,202.662c-0.16,0.024-0.226,0.033-0.297,0.25c-0.071,0.218-0.022,0.264,0.093,0.377
	l110.248,107.465c4.735,4.616,6.895,11.263,5.777,17.781l-26.025,151.743c-0.028,0.16-0.038,0.225,0.146,0.36
	c0.184,0.133,0.243,0.104,0.387,0.028l136.273-71.644c5.853-3.078,12.844-3.078,18.697,0.001l136.272,71.642
	c0.143,0.076,0.202,0.105,0.387-0.028c0.185-0.135,0.174-0.2,0.146-0.359l-26.025-151.743c-1.119-6.517,1.041-13.164,5.778-17.78
	l110.247-107.465c0.116-0.113,0.164-0.16,0.093-0.377c-0.071-0.217-0.137-0.226-0.297-0.25L339.59,180.527
	c-6.543-0.951-12.198-5.059-15.124-10.988L256.33,31.475c-0.071-0.145-0.101-0.205-0.33-0.205c-0.229,0-0.259,0.06-0.33,0.205
	L187.534,169.535z"/>
</svg>